{
  "accessors": [
    {
      "bufferView": 2,
      "componentType": 5126,
      "count": 292,
      "max": [
        1.0,
        0.02499999850988388,
        1.5
      ],
      "min": [
        0.0,
        -0.02499999850988388,
        -1.0
      ],
      "type": "VEC3"
    },
    {
      "bufferView": 2,
      "byteOffset": 3504,
      "componentType": 5126,
      "count": 292,
      "max": [
        1.0,
        1.0,
        1.0
      ],
      "min": [
        -1.0,
        -1.0,
        -1.0
      ],
      "type": "VEC3"
    },
    {
      "bufferView": 3,
      "componentType": 5126,
      "count": 292,
      "max": [
        1.0,
        1.0,
        1.0,
        1.0
      ],
      "min": [
        -1.0,
        -1.0,
        -1.0,
        1.0
      ],
      "type": "VEC4"
    },
    {
      "bufferView": 1,
      "componentType": 5126,
      "count": 292,
      "max": [
        0.9972899556159973,
        0.8188130259513855
      ],
      "min": [
        0.0027100250590592623,
        0.0027100250590592623
      ],
      "type": "VEC2"
    },
    {
      "bufferView": 0,
      "componentType": 5125,
      "count": 750,
      "type": "SCALAR"
    },
    {
      "bufferView": 2,
      "byteOffset": 7008,
      "componentType": 5126,
      "count": 87,
      "max": [
        0.9000001549720764,
        0.004999999888241291,
        -0.02500021457672119
      ],
      "min": [
        0.09999990463256836,
        -0.004999999888241291,
        -0.9000000953674316
      ],
      "type": "VEC3"
    },
    {
      "bufferView": 2,
      "byteOffset": 8052,
      "componentType": 5126,
      "count": 87,
      "max": [
        0.0,
        1.0,
        9.991303784318006e-08
      ],
      "min": [
        0.0,
        -1.0,
        -9.990984040086914e-08
      ],
      "type": "VEC3"
    },
    {
      "bufferView": 3,
      "byteOffset": 4672,
      "componentType": 5126,
      "count": 87,
      "max": [
        1.0,
        2.412642351526384e-12,
        2.414819573459681e-05,
        1.0
      ],
      "min": [
        -1.0,
        -1.3192157869573728e-12,
        -2.41481902776286e-05,
        1.0
      ],
      "type": "VEC4"
    },
    {
      "bufferView": 1,
      "byteOffset": 2336,
      "componentType": 5126,
      "count": 87,
      "max": [
        0.44173428416252136,
        0.9227637648582458
      ],
      "min": [
        0.0027100250590592623,
        0.6856365203857422
      ],
      "type": "VEC2"
    },
    {
      "bufferView": 0,
      "byteOffset": 3000,
      "componentType": 5125,
      "count": 114,
      "type": "SCALAR"
    },
    {
      "bufferView": 2,
      "byteOffset": 9096,
      "componentType": 5126,
      "count": 78,
      "max": [
        0.9000002145767212,
        0.004999999888241291,
        1.3999998569488525
      ],
      "min": [
        0.09999990463256836,
        -0.004999999888241291,
        0.02499985694885254
      ],
      "type": "VEC3"
    },
    {
      "bufferView": 2,
      "byteOffset": 10032,
      "componentType": 5126,
      "count": 78,
      "max": [
        0.0,
        1.0,
        9.991479288373739e-08
      ],
      "min": [
        0.0,
        -1.0,
        -9.991303784318006e-08
      ],
      "type": "VEC3"
    },
    {
      "bufferView": 3,
      "byteOffset": 6064,
      "componentType": 5126,
      "count": 78,
      "max": [
        -1.0,
        2.1181684878301965e-12,
        2.7650374249788e-05,
        1.0
      ],
      "min": [
        -1.0,
        -2.357221839596746e-12,
        -1.4747038221685216e-05,
        1.0
      ],
      "type": "VEC4"
    },
    {
      "bufferView": 1,
      "byteOffset": 3032,
      "componentType": 5126,
      "count": 78,
      "max": [
        0.7723576426506042,
        0.7533871531486511
      ],
      "min": [
        0.5555554628372192,
        0.0027100250590592623
      ],
      "type": "VEC2"
    },
    {
      "bufferView": 0,
      "byteOffset": 3456,
      "componentType": 5125,
      "count": 114,
      "type": "SCALAR"
    },
    {
      "bufferView": 2,
      "byteOffset": 10968,
      "componentType": 5126,
      "count": 292,
      "max": [
        1.0,
        0.02499999850988388,
        1.5
      ],
      "min": [
        0.0,
        -0.02499999850988388,
        -1.0
      ],
      "type": "VEC3"
    },
    {
      "bufferView": 2,
      "byteOffset": 14472,
      "componentType": 5126,
      "count": 292,
      "max": [
        1.0,
        1.0,
        1.0
      ],
      "min": [
        -1.0,
        -1.0,
        -1.0
      ],
      "type": "VEC3"
    },
    {
      "bufferView": 3,
      "byteOffset": 7312,
      "componentType": 5126,
      "count": 292,
      "max": [
        1.0,
        1.0,
        1.0,
        1.0
      ],
      "min": [
        -1.0,
        -1.0,
        -1.0,
        1.0
      ],
      "type": "VEC4"
    },
    {
      "bufferView": 1,
      "byteOffset": 3656,
      "componentType": 5126,
      "count": 292,
      "max": [
        0.9972899556159973,
        0.8188130259513855
      ],
      "min": [
        0.0027100250590592623,
        0.0027100250590592623
      ],
      "type": "VEC2"
    },
    {
      "bufferView": 0,
      "byteOffset": 3912,
      "componentType": 5125,
      "count": 750,
      "type": "SCALAR"
    },
    {
      "bufferView": 2,
      "byteOffset": 17976,
      "componentType": 5126,
      "count": 87,
      "max": [
        0.9000001549720764,
        0.004999999888241291,
        -0.02500021457672119
      ],
      "min": [
        0.09999990463256836,
        -0.004999999888241291,
        -0.9000000953674316
      ],
      "type": "VEC3"
    },
    {
      "bufferView": 2,
      "byteOffset": 19020,
      "componentType": 5126,
      "count": 87,
      "max": [
        0.0,
        1.0,
        9.991303784318006e-08
      ],
      "min": [
        0.0,
        -1.0,
        -9.990984040086914e-08
      ],
      "type": "VEC3"
    },
    {
      "bufferView": 3,
      "byteOffset": 11984,
      "componentType": 5126,
      "count": 87,
      "max": [
        1.0,
        2.412642351526384e-12,
        2.414819573459681e-05,
        1.0
      ],
      "min": [
        -1.0,
        -1.3192157869573728e-12,
        -2.41481902776286e-05,
        1.0
      ],
      "type": "VEC4"
    },
    {
      "bufferView": 1,
      "byteOffset": 5992,
      "componentType": 5126,
      "count": 87,
      "max": [
        0.44173428416252136,
        0.9227637648582458
      ],
      "min": [
        0.0027100250590592623,
        0.6856365203857422
      ],
      "type": "VEC2"
    },
    {
      "bufferView": 0,
      "byteOffset": 6912,
      "componentType": 5125,
      "count": 114,
      "type": "SCALAR"
    },
    {
      "bufferView": 2,
      "byteOffset": 20064,
      "componentType": 5126,
      "count": 78,
      "max": [
        0.9000002145767212,
        0.004999999888241291,
        1.3999998569488525
      ],
      "min": [
        0.09999990463256836,
        -0.004999999888241291,
        0.02499985694885254
      ],
      "type": "VEC3"
    },
    {
      "bufferView": 2,
      "byteOffset": 21000,
      "componentType": 5126,
      "count": 78,
      "max": [
        0.0,
        1.0,
        9.991479288373739e-08
      ],
      "min": [
        0.0,
        -1.0,
        -9.991303784318006e-08
      ],
      "type": "VEC3"
    },
    {
      "bufferView": 3,
      "byteOffset": 13376,
      "componentType": 5126,
      "count": 78,
      "max": [
        -1.0,
        2.1181684878301965e-12,
        2.7650374249788e-05,
        1.0
      ],
      "min": [
        -1.0,
        -2.357221839596746e-12,
        -1.4747038221685216e-05,
        1.0
      ],
      "type": "VEC4"
    },
    {
      "bufferView": 1,
      "byteOffset": 6688,
      "componentType": 5126,
      "count": 78,
      "max": [
        0.7723576426506042,
        0.7533871531486511
      ],
      "min": [
        0.5555554628372192,
        0.0027100250590592623
      ],
      "type": "VEC2"
    },
    {
      "bufferView": 0,
      "byteOffset": 7368,
      "componentType": 5125,
      "count": 114,
      "type": "SCALAR"
    }
  ],
  "asset": {
    "extras": {
      "author": "invisiprim (https://sketchfab.com/invisiprim)",
      "license": "CC-BY-4.0 (http://creativecommons.org/licenses/by/4.0/)",
      "source": "https://sketchfab.com/3d-models/hi-tech-doors-red-7c10e4fec64645119f158f53738ea62c",
      "title": "Hi-tech Doors - Red"
    },
    "generator": "Sketchfab-12.65.0",
    "version": "2.0"
  },
  "bufferViews": [
    {
      "buffer": 0,
      "byteLength": 7824,
      "name": "floatBufferViews",
      "target": 34963
    },
    {
      "buffer": 0,
      "byteLength": 7312,
      "byteOffset": 7824,
      "byteStride": 8,
      "name": "floatBufferViews",
      "target": 34962
    },
    {
      "buffer": 0,
      "byteLength": 21936,
      "byteOffset": 15136,
      "byteStride": 12,
      "name": "floatBufferViews",
      "target": 34962
    },
    {
      "buffer": 0,
      "byteLength": 14624,
      "byteOffset": 37072,
      "byteStride": 16,
      "name": "floatBufferViews",
      "target": 34962
    }
  ],
  "buffers": [
    {
      "byteLength": 51696,
      "uri": "scene.bin"
    }
  ],
  "images": [
    {
      "uri": "textures/Metal_baseColor.png"
    },
    {
      "uri": "textures/Metal_metallicRoughness.png"
    },
    {
      "uri": "textures/Metal_normal.png"
    },
    {
      "uri": "textures/Glass_2_metallicRoughness.png"
    }
  ],
  "materials": [
    {
      "doubleSided": true,
      "name": "Metal",
      "normalTexture": {
        "index": 2
      },
      "occlusionTexture": {
        "index": 1
      },
      "pbrMetallicRoughness": {
        "baseColorTexture": {
          "index": 0
        },
        "metallicRoughnessTexture": {
          "index": 1
        }
      }
    },
    {
      "doubleSided": true,
      "name": "Glass_2",
      "normalTexture": {
        "index": 2
      },
      "occlusionTexture": {
        "index": 3
      },
      "pbrMetallicRoughness": {
        "baseColorTexture": {
          "index": 0
        },
        "metallicRoughnessTexture": {
          "index": 3
        }
      }
    },
    {
      "doubleSided": true,
      "name": "Glass_1",
      "normalTexture": {
        "index": 2
      },
      "occlusionTexture": {
        "index": 3
      },
      "pbrMetallicRoughness": {
        "baseColorTexture": {
          "index": 0
        },
        "metallicRoughnessTexture": {
          "index": 3
        }
      }
    }
  ],
  "meshes": [
    {
      "name": "door.001_Metal_0",
      "primitives": [
        {
          "attributes": {
            "NORMAL": 1,
            "POSITION": 0,
            "TANGENT": 2,
            "TEXCOORD_0": 3
          },
          "indices": 4,
          "material": 0,
          "mode": 4
        }
      ]
    },
    {
      "name": "door.001_Glass 2_0",
      "primitives": [
        {
          "attributes": {
            "NORMAL": 6,
            "POSITION": 5,
            "TANGENT": 7,
            "TEXCOORD_0": 8
          },
          "indices": 9,
          "material": 1,
          "mode": 4
        }
      ]
    },
    {
      "name": "door.001_Glass 1_0",
      "primitives": [
        {
          "attributes": {
            "NORMAL": 11,
            "POSITION": 10,
            "TANGENT": 12,
            "TEXCOORD_0": 13
          },
          "indices": 14,
          "material": 2,
          "mode": 4
        }
      ]
    },
    {
      "name": "door_Metal_0",
      "primitives": [
        {
          "attributes": {
            "NORMAL": 16,
            "POSITION": 15,
            "TANGENT": 17,
            "TEXCOORD_0": 18
          },
          "indices": 19,
          "material": 0,
          "mode": 4
        }
      ]
    },
    {
      "name": "door_Glass 2_0",
      "primitives": [
        {
          "attributes": {
            "NORMAL": 21,
            "POSITION": 20,
            "TANGENT": 22,
            "TEXCOORD_0": 23
          },
          "indices": 24,
          "material": 1,
          "mode": 4
        }
      ]
    },
    {
      "name": "door_Glass 1_0",
      "primitives": [
        {
          "attributes": {
            "NORMAL": 26,
            "POSITION": 25,
            "TANGENT": 27,
            "TEXCOORD_0": 28
          },
          "indices": 29,
          "material": 2,
          "mode": 4
        }
      ]
    }
  ],
  "nodes": [
    {
      "children": [
        1
      ],
      "matrix": [
        1.0,
        0.0,
        0.0,
        0.0,
        0.0,
        2.220446049250313e-16,
        -1.0,
        0.0,
        0.0,
        1.0,
        2.220446049250313e-16,
        0.0,
        0.0,
        0.0,
        0.0,
        1.0
      ],
      "name": "Sketchfab_model"
    },
    {
      "children": [
        2
      ],
      "matrix": [
        0.009999999776482582,
        0.0,
        0.0,
        0.0,
        0.0,
        0.0,
        0.009999999776482582,
        0.0,
        0.0,
        -0.009999999776482582,
        0.0,
        0.0,
        0.0,
        0.0,
        0.0,
        1.0
      ],
      "name": "bf99e64ff61f4782a7e2d0aff5e63b39.fbx"
    },
    {
      "children": [
        3,
        7
      ],
      "name": "RootNode"
    },
    {
      "children": [
        4,
        5,
        6
      ],
      "matrix": [
        -99.99999999999241,
        1.2246465878873718e-14,
        -3.894143777553012e-05,
        0.0,
        -3.894143777553e-05,
        7.549789982075339e-06,
        99.99999999999213,
        0.0,
        2.9522432265841658e-12,
        99.9999999999997,
        -7.549789970973109e-06,
        0.0,
        100.0,
        0.0,
        0.0,
        1.0
      ],
      "name": "door.001"
    },
    {
      "mesh": 0,
      "name": "door.001_Metal_0"
    },
    {
      "mesh": 1,
      "name": "door.001_Glass 2_0"
    },
    {
      "mesh": 2,
      "name": "door.001_Glass 1_0"
    },
    {
      "children": [
        8,
        9,
        10
      ],
      "matrix": [
        100.0,
        0.0,
        0.0,
        0.0,
        -0.0,
        -1.629206793918314e-05,
        -99.99999999999868,
        0.0,
        0.0,
        99.99999999999868,
        -1.629206793918314e-05,
        0.0,
        -100.0,
        0.0,
        0.0,
        1.0
      ],
      "name": "door"
    },
    {
      "mesh": 3,
      "name": "door_Metal_0"
    },
    {
      "mesh": 4,
      "name": "door_Glass 2_0"
    },
    {
      "mesh": 5,
      "name": "door_Glass 1_0"
    }
  ],
  "samplers": [
    {
      "magFilter": 9729,
      "minFilter": 9987,
      "wrapS": 10497,
      "wrapT": 10497
    }
  ],
  "scene": 0,
  "scenes": [
    {
      "name": "Sketchfab_Scene",
      "nodes": [
        0
      ]
    }
  ],
  "textures": [
    {
      "sampler": 0,
      "source": 0
    },
    {
      "sampler": 0,
      "source": 1
    },
    {
      "sampler": 0,
      "source": 2
    },
    {
      "sampler": 0,
      "source": 3
    }
  ]
}
